{
    "asset" : {
        "generator" : "Khronos glTF Blender I/O v1.4.40",
        "version" : "2.0"
    },
    "scene" : 0,
    "scenes" : [
        {
            "name" : "Scene",
            "nodes" : [
                0,
                1,
                2,
                3,
                4,
                5,
                6,
                7,
                8
            ]
        }
    ],
    "nodes" : [
        {
            "mesh" : 0,
            "name" : "Cube",
            "scale" : [
                1.9768109321594238,
                0.7924370169639587,
                1.4957588911056519
            ],
            "translation" : [
                0,
                0.20756298303604126,
                0
            ]
        },
        {
            "mesh" : 1,
            "name" : "Cube.001",
            "scale" : [
                1.9768109321594238,
                0.7924370169639587,
                1.4957588911056519
            ],
            "translation" : [
                0.009201169945299625,
                0.9991953372955322,
                -1.4957795143127441
            ]
        },
        {
            "name" : "Sun",
            "rotation" : [
                0.37232697010040283,
                0,
                0.004255085717886686,
                0.9280918836593628
            ],
            "translation" : [
                0.1925506293773651,
                3.83866024017334,
                7.694705963134766
            ]
        },
        {
            "name" : "Camera",
            "rotation" : [
                -0.5812840461730957,
                0.26397767663002014,
                -0.20698530972003937,
                -0.741337776184082
            ],
            "translation" : [
                -8.899999618530273,
                4.260000228881836,
                11.4399995803833
            ]
        },
        {
            "mesh" : 2,
            "name" : "Curve.001"
        },
        {
            "mesh" : 3,
            "name" : "Curve.003",
            "rotation" : [
                0,
                1,
                0,
                -1.6292068494294654e-07
            ],
            "translation" : [
                -0.0069074127823114395,
                0,
                -0.006778836250305176
            ]
        },
        {
            "name" : "Point",
            "translation" : [
                -5.351037979125977,
                0.5528292655944824,
                -0.23962616920471191
            ]
        },
        {
            "name" : "Point.001",
            "translation" : [
                7.491458892822266,
                0.5528292655944824,
                -0.23962616920471191
            ]
        },
        {
            "name" : "Point.002",
            "translation" : [
                -0.32960665225982666,
                0.5528292655944824,
                -11.832765579223633
            ]
        }
    ],
    "animations" : [
        {
            "channels" : [
                {
                    "sampler" : 0,
                    "target" : {
                        "node" : 1,
                        "path" : "rotation"
                    }
                }
            ],
            "name" : "Cube.001Action",
            "samplers" : [
                {
                    "input" : 32,
                    "interpolation" : "LINEAR",
                    "output" : 33
                }
            ]
        }
    ],
    "materials" : [
        {
            "doubleSided" : true,
            "name" : "woden",
            "normalTexture" : {
                "index" : 0,
                "texCoord" : 0
            },
            "pbrMetallicRoughness" : {
                "baseColorTexture" : {
                    "index" : 1,
                    "texCoord" : 0
                },
                "metallicFactor" : 0,
                "metallicRoughnessTexture" : {
                    "index" : 2,
                    "texCoord" : 0
                }
            }
        },
        {
            "doubleSided" : true,
            "name" : "wodenTop",
            "normalTexture" : {
                "index" : 3,
                "texCoord" : 0
            },
            "pbrMetallicRoughness" : {
                "baseColorTexture" : {
                    "index" : 4,
                    "texCoord" : 0
                },
                "metallicFactor" : 0,
                "metallicRoughnessTexture" : {
                    "index" : 5,
                    "texCoord" : 0
                }
            }
        },
        {
            "doubleSided" : true,
            "name" : "thazhu",
            "pbrMetallicRoughness" : {
                "roughnessFactor" : 0.2959090769290924
            }
        },
        {
            "doubleSided" : true,
            "name" : "thoppi",
            "normalTexture" : {
                "index" : 6,
                "texCoord" : 0
            },
            "pbrMetallicRoughness" : {
                "baseColorTexture" : {
                    "index" : 7,
                    "texCoord" : 0
                },
                "roughnessFactor" : 0.2959090769290924
            }
        },
        {
            "doubleSided" : true,
            "name" : "SVGMat",
            "normalTexture" : {
                "index" : 8,
                "texCoord" : 0
            },
            "pbrMetallicRoughness" : {
                "baseColorTexture" : {
                    "index" : 9,
                    "texCoord" : 0
                },
                "metallicRoughnessTexture" : {
                    "index" : 10,
                    "texCoord" : 0
                }
            }
        },
        {
            "doubleSided" : true,
            "name" : "poootu",
            "normalTexture" : {
                "index" : 11,
                "texCoord" : 0
            },
            "pbrMetallicRoughness" : {
                "baseColorTexture" : {
                    "index" : 12,
                    "texCoord" : 0
                },
                "metallicRoughnessTexture" : {
                    "index" : 13,
                    "texCoord" : 0
                }
            }
        },
        {
            "doubleSided" : true,
            "name" : "sides",
            "normalTexture" : {
                "index" : 14,
                "texCoord" : 0
            },
            "pbrMetallicRoughness" : {
                "baseColorTexture" : {
                    "index" : 15,
                    "texCoord" : 0
                },
                "metallicRoughnessTexture" : {
                    "index" : 16,
                    "texCoord" : 0
                }
            }
        }
    ],
    "meshes" : [
        {
            "name" : "Cube.001",
            "primitives" : [
                {
                    "attributes" : {
                        "POSITION" : 0,
                        "NORMAL" : 1,
                        "TEXCOORD_0" : 2
                    },
                    "indices" : 3,
                    "material" : 0
                }
            ]
        },
        {
            "name" : "Cube.002",
            "primitives" : [
                {
                    "attributes" : {
                        "POSITION" : 4,
                        "NORMAL" : 5,
                        "TEXCOORD_0" : 6,
                        "COLOR_0" : 7
                    },
                    "indices" : 8,
                    "material" : 1
                },
                {
                    "attributes" : {
                        "POSITION" : 9,
                        "NORMAL" : 10,
                        "TEXCOORD_0" : 11,
                        "COLOR_0" : 12
                    },
                    "indices" : 13,
                    "material" : 2
                },
                {
                    "attributes" : {
                        "POSITION" : 14,
                        "NORMAL" : 15,
                        "TEXCOORD_0" : 16,
                        "COLOR_0" : 17
                    },
                    "indices" : 18,
                    "material" : 3
                },
                {
                    "attributes" : {
                        "POSITION" : 19,
                        "NORMAL" : 20,
                        "TEXCOORD_0" : 21,
                        "COLOR_0" : 22
                    },
                    "indices" : 23,
                    "material" : 4
                }
            ]
        },
        {
            "name" : "Curve.001",
            "primitives" : [
                {
                    "attributes" : {
                        "POSITION" : 24,
                        "NORMAL" : 25,
                        "TEXCOORD_0" : 26
                    },
                    "indices" : 27,
                    "material" : 5
                }
            ]
        },
        {
            "name" : "Curve.003",
            "primitives" : [
                {
                    "attributes" : {
                        "POSITION" : 28,
                        "NORMAL" : 29,
                        "TEXCOORD_0" : 30
                    },
                    "indices" : 31,
                    "material" : 6
                }
            ]
        }
    ],
    "textures" : [
        {
            "sampler" : 0,
            "source" : 0
        },
        {
            "sampler" : 0,
            "source" : 1
        },
        {
            "sampler" : 0,
            "source" : 2
        },
        {
            "sampler" : 0,
            "source" : 3
        },
        {
            "sampler" : 0,
            "source" : 4
        },
        {
            "sampler" : 0,
            "source" : 5
        },
        {
            "sampler" : 0,
            "source" : 6
        },
        {
            "sampler" : 0,
            "source" : 7
        },
        {
            "sampler" : 0,
            "source" : 8
        },
        {
            "sampler" : 0,
            "source" : 9
        },
        {
            "sampler" : 0,
            "source" : 10
        },
        {
            "sampler" : 0,
            "source" : 11
        },
        {
            "sampler" : 0,
            "source" : 12
        },
        {
            "sampler" : 0,
            "source" : 13
        },
        {
            "sampler" : 0,
            "source" : 14
        },
        {
            "sampler" : 0,
            "source" : 15
        },
        {
            "sampler" : 0,
            "source" : 16
        }
    ],
    "images" : [
        {
            "mimeType" : "image/png",
            "name" : "boxNormal",
            "uri" : "boxNormal.png"
        },
        {
            "mimeType" : "image/png",
            "name" : "boxDiffuse",
            "uri" : "boxDiffuse.png"
        },
        {
            "mimeType" : "image/png",
            "name" : "boxRoughness",
            "uri" : "boxRoughness.png"
        },
        {
            "mimeType" : "image/png",
            "name" : "woodTopNormal",
            "uri" : "woodTopNormal.png"
        },
        {
            "mimeType" : "image/png",
            "name" : "woodTopDiffuse",
            "uri" : "woodTopDiffuse.png"
        },
        {
            "mimeType" : "image/png",
            "name" : "woodTopRooughness",
            "uri" : "woodTopRooughness.png"
        },
        {
            "mimeType" : "image/png",
            "name" : "thoppiNormal",
            "uri" : "thoppiNormal.png"
        },
        {
            "mimeType" : "image/png",
            "name" : "thoppiDiffuse",
            "uri" : "thoppiDiffuse.png"
        },
        {
            "mimeType" : "image/png",
            "name" : "adappinteTThongalNormal",
            "uri" : "adappinteTThongalNormal.png"
        },
        {
            "mimeType" : "image/png",
            "name" : "adappinteTThongalDiffuse",
            "uri" : "adappinteTThongalDiffuse.png"
        },
        {
            "mimeType" : "image/png",
            "name" : "adappinteTThongalRooghness",
            "uri" : "adappinteTThongalRooghness.png"
        },
        {
            "mimeType" : "image/png",
            "name" : "poouNormal",
            "uri" : "poouNormal.png"
        },
        {
            "mimeType" : "image/png",
            "name" : "poottuDiffuse",
            "uri" : "poottuDiffuse.png"
        },
        {
            "mimeType" : "image/png",
            "name" : "pootuRoughness",
            "uri" : "pootuRoughness.png"
        },
        {
            "mimeType" : "image/png",
            "name" : "sideNormal",
            "uri" : "sideNormal.png"
        },
        {
            "mimeType" : "image/png",
            "name" : "sideDiffuse",
            "uri" : "sideDiffuse.png"
        },
        {
            "mimeType" : "image/png",
            "name" : "sideRoughness",
            "uri" : "sideRoughness.png"
        }
    ],
    "accessors" : [
        {
            "bufferView" : 0,
            "componentType" : 5126,
            "count" : 156,
            "max" : [
                1,
                1,
                1
            ],
            "min" : [
                -1,
                -0.5006533265113831,
                -1
            ],
            "type" : "VEC3"
        },
        {
            "bufferView" : 1,
            "componentType" : 5126,
            "count" : 156,
            "type" : "VEC3"
        },
        {
            "bufferView" : 2,
            "componentType" : 5126,
            "count" : 156,
            "type" : "VEC2"
        },
        {
            "bufferView" : 3,
            "componentType" : 5123,
            "count" : 408,
            "type" : "SCALAR"
        },
        {
            "bufferView" : 4,
            "componentType" : 5126,
            "count" : 114,
            "max" : [
                1.0080199241638184,
                1.3394404649734497,
                2.012688636779785
            ],
            "min" : [
                -1.0173289775848389,
                1.3887882232666016e-05,
                -0.012660384178161621
            ],
            "type" : "VEC3"
        },
        {
            "bufferView" : 5,
            "componentType" : 5126,
            "count" : 114,
            "type" : "VEC3"
        },
        {
            "bufferView" : 6,
            "componentType" : 5126,
            "count" : 114,
            "type" : "VEC2"
        },
        {
            "bufferView" : 7,
            "componentType" : 5123,
            "count" : 114,
            "normalized" : true,
            "type" : "VEC4"
        },
        {
            "bufferView" : 8,
            "componentType" : 5123,
            "count" : 180,
            "type" : "SCALAR"
        },
        {
            "bufferView" : 9,
            "componentType" : 5126,
            "count" : 3046,
            "max" : [
                0.19701799750328064,
                1.072335124015808,
                2.094175338745117
            ],
            "min" : [
                -0.1533314287662506,
                -1.0135910511016846,
                1.375977873802185
            ],
            "type" : "VEC3"
        },
        {
            "bufferView" : 10,
            "componentType" : 5126,
            "count" : 3046,
            "type" : "VEC3"
        },
        {
            "bufferView" : 11,
            "componentType" : 5126,
            "count" : 3046,
            "type" : "VEC2"
        },
        {
            "bufferView" : 12,
            "componentType" : 5123,
            "count" : 3046,
            "normalized" : true,
            "type" : "VEC4"
        },
        {
            "bufferView" : 13,
            "componentType" : 5123,
            "count" : 5118,
            "type" : "SCALAR"
        },
        {
            "bufferView" : 14,
            "componentType" : 5126,
            "count" : 2958,
            "max" : [
                0.2629361152648926,
                1.8346322774887085,
                1.2848987579345703
            ],
            "min" : [
                -0.2911602556705475,
                1.1964551210403442,
                0.7249017953872681
            ],
            "type" : "VEC3"
        },
        {
            "bufferView" : 15,
            "componentType" : 5126,
            "count" : 2958,
            "type" : "VEC3"
        },
        {
            "bufferView" : 16,
            "componentType" : 5126,
            "count" : 2958,
            "type" : "VEC2"
        },
        {
            "bufferView" : 17,
            "componentType" : 5123,
            "count" : 2958,
            "normalized" : true,
            "type" : "VEC4"
        },
        {
            "bufferView" : 18,
            "componentType" : 5123,
            "count" : 3744,
            "type" : "SCALAR"
        },
        {
            "bufferView" : 19,
            "componentType" : 5126,
            "count" : 3849,
            "max" : [
                1.0222033262252808,
                0.38968589901924133,
                2.0272164344787598
            ],
            "min" : [
                -1.035007357597351,
                -0.0013176315696910024,
                -0.03172098100185394
            ],
            "type" : "VEC3"
        },
        {
            "bufferView" : 20,
            "componentType" : 5126,
            "count" : 3849,
            "type" : "VEC3"
        },
        {
            "bufferView" : 21,
            "componentType" : 5126,
            "count" : 3849,
            "type" : "VEC2"
        },
        {
            "bufferView" : 22,
            "componentType" : 5123,
            "count" : 3849,
            "normalized" : true,
            "type" : "VEC4"
        },
        {
            "bufferView" : 23,
            "componentType" : 5123,
            "count" : 5952,
            "type" : "SCALAR"
        },
        {
            "bufferView" : 24,
            "componentType" : 5126,
            "count" : 1252,
            "max" : [
                0.5274233222007751,
                0.8201723694801331,
                1.5698686838150024
            ],
            "min" : [
                -0.44215258955955505,
                0.15531562268733978,
                1.4660773277282715
            ],
            "type" : "VEC3"
        },
        {
            "bufferView" : 25,
            "componentType" : 5126,
            "count" : 1252,
            "type" : "VEC3"
        },
        {
            "bufferView" : 26,
            "componentType" : 5126,
            "count" : 1252,
            "type" : "VEC2"
        },
        {
            "bufferView" : 27,
            "componentType" : 5123,
            "count" : 2361,
            "type" : "SCALAR"
        },
        {
            "bufferView" : 28,
            "componentType" : 5126,
            "count" : 4296,
            "max" : [
                2.019538164138794,
                0.9989919662475586,
                1.5308740139007568
            ],
            "min" : [
                -2.026445150375366,
                -0.20207858085632324,
                -1.5376522541046143
            ],
            "type" : "VEC3"
        },
        {
            "bufferView" : 29,
            "componentType" : 5126,
            "count" : 4296,
            "type" : "VEC3"
        },
        {
            "bufferView" : 30,
            "componentType" : 5126,
            "count" : 4296,
            "type" : "VEC2"
        },
        {
            "bufferView" : 31,
            "componentType" : 5123,
            "count" : 6096,
            "type" : "SCALAR"
        },
        {
            "bufferView" : 32,
            "componentType" : 5126,
            "count" : 25,
            "max" : [
                1.4166666666666667
            ],
            "min" : [
                0.4166666666666667
            ],
            "type" : "SCALAR"
        },
        {
            "bufferView" : 33,
            "componentType" : 5126,
            "count" : 25,
            "type" : "VEC4"
        }
    ],
    "bufferViews" : [
        {
            "buffer" : 0,
            "byteLength" : 1872,
            "byteOffset" : 0
        },
        {
            "buffer" : 0,
            "byteLength" : 1872,
            "byteOffset" : 1872
        },
        {
            "buffer" : 0,
            "byteLength" : 1248,
            "byteOffset" : 3744
        },
        {
            "buffer" : 0,
            "byteLength" : 816,
            "byteOffset" : 4992
        },
        {
            "buffer" : 0,
            "byteLength" : 1368,
            "byteOffset" : 5808
        },
        {
            "buffer" : 0,
            "byteLength" : 1368,
            "byteOffset" : 7176
        },
        {
            "buffer" : 0,
            "byteLength" : 912,
            "byteOffset" : 8544
        },
        {
            "buffer" : 0,
            "byteLength" : 912,
            "byteOffset" : 9456
        },
        {
            "buffer" : 0,
            "byteLength" : 360,
            "byteOffset" : 10368
        },
        {
            "buffer" : 0,
            "byteLength" : 36552,
            "byteOffset" : 10728
        },
        {
            "buffer" : 0,
            "byteLength" : 36552,
            "byteOffset" : 47280
        },
        {
            "buffer" : 0,
            "byteLength" : 24368,
            "byteOffset" : 83832
        },
        {
            "buffer" : 0,
            "byteLength" : 24368,
            "byteOffset" : 108200
        },
        {
            "buffer" : 0,
            "byteLength" : 10236,
            "byteOffset" : 132568
        },
        {
            "buffer" : 0,
            "byteLength" : 35496,
            "byteOffset" : 142804
        },
        {
            "buffer" : 0,
            "byteLength" : 35496,
            "byteOffset" : 178300
        },
        {
            "buffer" : 0,
            "byteLength" : 23664,
            "byteOffset" : 213796
        },
        {
            "buffer" : 0,
            "byteLength" : 23664,
            "byteOffset" : 237460
        },
        {
            "buffer" : 0,
            "byteLength" : 7488,
            "byteOffset" : 261124
        },
        {
            "buffer" : 0,
            "byteLength" : 46188,
            "byteOffset" : 268612
        },
        {
            "buffer" : 0,
            "byteLength" : 46188,
            "byteOffset" : 314800
        },
        {
            "buffer" : 0,
            "byteLength" : 30792,
            "byteOffset" : 360988
        },
        {
            "buffer" : 0,
            "byteLength" : 30792,
            "byteOffset" : 391780
        },
        {
            "buffer" : 0,
            "byteLength" : 11904,
            "byteOffset" : 422572
        },
        {
            "buffer" : 0,
            "byteLength" : 15024,
            "byteOffset" : 434476
        },
        {
            "buffer" : 0,
            "byteLength" : 15024,
            "byteOffset" : 449500
        },
        {
            "buffer" : 0,
            "byteLength" : 10016,
            "byteOffset" : 464524
        },
        {
            "buffer" : 0,
            "byteLength" : 4722,
            "byteOffset" : 474540
        },
        {
            "buffer" : 0,
            "byteLength" : 51552,
            "byteOffset" : 479264
        },
        {
            "buffer" : 0,
            "byteLength" : 51552,
            "byteOffset" : 530816
        },
        {
            "buffer" : 0,
            "byteLength" : 34368,
            "byteOffset" : 582368
        },
        {
            "buffer" : 0,
            "byteLength" : 12192,
            "byteOffset" : 616736
        },
        {
            "buffer" : 0,
            "byteLength" : 100,
            "byteOffset" : 628928
        },
        {
            "buffer" : 0,
            "byteLength" : 400,
            "byteOffset" : 629028
        }
    ],
    "samplers" : [
        {
            "magFilter" : 9729,
            "minFilter" : 9986
        }
    ],
    "buffers" : [
        {
            "byteLength" : 629428,
            "uri" : "GetSetBox.bin"
        }
    ]
}
