{
    "asset" : {
        "generator" : "Khronos glTF Blender I/O v1.4.40",
        "version" : "2.0"
    },
    "scene" : 0,
    "scenes" : [
        {
            "name" : "Scene",
            "nodes" : [
                0
            ]
        }
    ],
    "nodes" : [
        {
            "mesh" : 0,
            "name" : "StickLowRes"
        }
    ],
    "materials" : [
        {
            "doubleSided" : true,
            "name" : "stickLowresMat",
            "normalTexture" : {
                "index" : 0,
                "texCoord" : 0
            },
            "pbrMetallicRoughness" : {
                "baseColorTexture" : {
                    "index" : 1,
                    "texCoord" : 0
                },
                "metallicFactor" : 0,
                "roughnessFactor" : 0.5
            }
        }
    ],
    "meshes" : [
        {
            "name" : "Cube.001",
            "primitives" : [
                {
                    "attributes" : {
                        "POSITION" : 0,
                        "NORMAL" : 1,
                        "TEXCOORD_0" : 2
                    },
                    "indices" : 3,
                    "material" : 0
                }
            ]
        }
    ],
    "textures" : [
        {
            "sampler" : 0,
            "source" : 0
        },
        {
            "sampler" : 0,
            "source" : 1
        }
    ],
    "images" : [
        {
            "mimeType" : "image/png",
            "name" : "slingstick_normal",
            "uri" : "slingstick_normal.png"
        },
        {
            "mimeType" : "image/png",
            "name" : "slingstick_diffuse",
            "uri" : "slingstick_diffuse.png"
        }
    ],
    "accessors" : [
        {
            "bufferView" : 0,
            "componentType" : 5126,
            "count" : 219,
            "max" : [
                0.4543430209159851,
                1.3186440467834473,
                0.1280204802751541
            ],
            "min" : [
                -0.44024208188056946,
                0.0016216981457546353,
                -0.1252565085887909
            ],
            "type" : "VEC3"
        },
        {
            "bufferView" : 1,
            "componentType" : 5126,
            "count" : 219,
            "type" : "VEC3"
        },
        {
            "bufferView" : 2,
            "componentType" : 5126,
            "count" : 219,
            "type" : "VEC2"
        },
        {
            "bufferView" : 3,
            "componentType" : 5123,
            "count" : 696,
            "type" : "SCALAR"
        }
    ],
    "bufferViews" : [
        {
            "buffer" : 0,
            "byteLength" : 2628,
            "byteOffset" : 0
        },
        {
            "buffer" : 0,
            "byteLength" : 2628,
            "byteOffset" : 2628
        },
        {
            "buffer" : 0,
            "byteLength" : 1752,
            "byteOffset" : 5256
        },
        {
            "buffer" : 0,
            "byteLength" : 1392,
            "byteOffset" : 7008
        }
    ],
    "samplers" : [
        {
            "magFilter" : 9729,
            "minFilter" : 9986
        }
    ],
    "buffers" : [
        {
            "byteLength" : 8400,
            "uri" : "stick.bin"
        }
    ]
}
