{
    "asset" : {
        "generator" : "Khronos glTF Blender I/O v1.4.40",
        "version" : "2.0"
    },
    "scene" : 0,
    "scenes" : [
        {
            "name" : "Scene",
            "nodes" : [
                0
            ]
        }
    ],
    "nodes" : [
        {
            "mesh" : 0,
            "name" : "ballLowRes",
            "translation" : [
                -0.000734267698135227,
                1.1653660535812378,
                0.31456780433654785
            ]
        }
    ],
    "materials" : [
        {
            "doubleSided" : true,
            "name" : "ballMatlow",
            "normalTexture" : {
                "index" : 0,
                "texCoord" : 0
            },
            "pbrMetallicRoughness" : {
                "baseColorTexture" : {
                    "index" : 1,
                    "texCoord" : 0
                },
                "metallicFactor" : 0,
                "roughnessFactor" : 0.3272727131843567
            }
        }
    ],
    "meshes" : [
        {
            "name" : "Sphere.001",
            "primitives" : [
                {
                    "attributes" : {
                        "POSITION" : 0,
                        "NORMAL" : 1,
                        "TEXCOORD_0" : 2
                    },
                    "indices" : 3,
                    "material" : 0
                }
            ]
        }
    ],
    "textures" : [
        {
            "sampler" : 0,
            "source" : 0
        },
        {
            "sampler" : 0,
            "source" : 1
        }
    ],
    "images" : [
        {
            "mimeType" : "image/png",
            "name" : "ballTexture_normal",
            "uri" : "ballTexture_normal.png"
        },
        {
            "mimeType" : "image/png",
            "name" : "ballTexture_diffuse",
            "uri" : "ballTexture_diffuse.png"
        }
    ],
    "accessors" : [
        {
            "bufferView" : 0,
            "componentType" : 5126,
            "count" : 71,
            "max" : [
                0.10371345281600952,
                0.10565721988677979,
                0.10784405469894409
            ],
            "min" : [
                -0.10481971502304077,
                -0.1017448902130127,
                -0.10317845642566681
            ],
            "type" : "VEC3"
        },
        {
            "bufferView" : 1,
            "componentType" : 5126,
            "count" : 71,
            "type" : "VEC3"
        },
        {
            "bufferView" : 2,
            "componentType" : 5126,
            "count" : 71,
            "type" : "VEC2"
        },
        {
            "bufferView" : 3,
            "componentType" : 5123,
            "count" : 342,
            "type" : "SCALAR"
        }
    ],
    "bufferViews" : [
        {
            "buffer" : 0,
            "byteLength" : 852,
            "byteOffset" : 0
        },
        {
            "buffer" : 0,
            "byteLength" : 852,
            "byteOffset" : 852
        },
        {
            "buffer" : 0,
            "byteLength" : 568,
            "byteOffset" : 1704
        },
        {
            "buffer" : 0,
            "byteLength" : 684,
            "byteOffset" : 2272
        }
    ],
    "samplers" : [
        {
            "magFilter" : 9729,
            "minFilter" : 9986
        }
    ],
    "buffers" : [
        {
            "byteLength" : 2956,
            "uri" : "ball.bin"
        }
    ]
}
