{
    "asset" : {
        "generator" : "Khronos glTF Blender I/O v1.4.40",
        "version" : "2.0"
    },
    "scene" : 0,
    "scenes" : [
        {
            "name" : "Scene",
            "nodes" : [
                0
            ]
        }
    ],
    "nodes" : [
        {
            "mesh" : 0,
            "name" : "RubberBand HighRes"
        }
    ],
    "materials" : [
        {
            "doubleSided" : true,
            "name" : "RubbeMat",
            "normalTexture" : {
                "index" : 0,
                "texCoord" : 0
            },
            "pbrMetallicRoughness" : {
                "baseColorTexture" : {
                    "index" : 1,
                    "texCoord" : 0
                },
                "metallicFactor" : 0,
                "roughnessFactor" : 0.5
            }
        }
    ],
    "meshes" : [
        {
            "name" : "Plane",
            "primitives" : [
                {
                    "attributes" : {
                        "POSITION" : 0,
                        "NORMAL" : 1,
                        "TEXCOORD_0" : 2,
                        "COLOR_0" : 3
                    },
                    "indices" : 4,
                    "material" : 0
                }
            ]
        }
    ],
    "textures" : [
        {
            "sampler" : 0,
            "source" : 0
        },
        {
            "sampler" : 0,
            "source" : 1
        }
    ],
    "images" : [
        {
            "mimeType" : "image/png",
            "name" : "rubberband_normal",
            "uri" : "rubberband_normal.png"
        },
        {
            "mimeType" : "image/png",
            "name" : "rubberband_diffuse",
            "uri" : "rubberband_diffuse.png"
        }
    ],
    "accessors" : [
        {
            "bufferView" : 0,
            "componentType" : 5126,
            "count" : 3751,
            "max" : [
                0.43513935804367065,
                1.2725024223327637,
                0.42234542965888977
            ],
            "min" : [
                -0.4165406823158264,
                1.1263084411621094,
                -0.14198783040046692
            ],
            "type" : "VEC3"
        },
        {
            "bufferView" : 1,
            "componentType" : 5126,
            "count" : 3751,
            "type" : "VEC3"
        },
        {
            "bufferView" : 2,
            "componentType" : 5126,
            "count" : 3751,
            "type" : "VEC2"
        },
        {
            "bufferView" : 3,
            "componentType" : 5123,
            "count" : 3751,
            "normalized" : true,
            "type" : "VEC4"
        },
        {
            "bufferView" : 4,
            "componentType" : 5123,
            "count" : 19392,
            "type" : "SCALAR"
        }
    ],
    "bufferViews" : [
        {
            "buffer" : 0,
            "byteLength" : 45012,
            "byteOffset" : 0
        },
        {
            "buffer" : 0,
            "byteLength" : 45012,
            "byteOffset" : 45012
        },
        {
            "buffer" : 0,
            "byteLength" : 30008,
            "byteOffset" : 90024
        },
        {
            "buffer" : 0,
            "byteLength" : 30008,
            "byteOffset" : 120032
        },
        {
            "buffer" : 0,
            "byteLength" : 38784,
            "byteOffset" : 150040
        }
    ],
    "samplers" : [
        {
            "magFilter" : 9729,
            "minFilter" : 9986
        }
    ],
    "buffers" : [
        {
            "byteLength" : 188824,
            "uri" : "rubberband.bin"
        }
    ]
}
