{
    "asset" : {
        "generator" : "Khronos glTF Blender I/O v1.4.40",
        "version" : "2.0"
    },
    "extensionsUsed" : [
        "KHR_materials_clearcoat"
    ],
    "scene" : 0,
    "scenes" : [
        {
            "name" : "Scene",
            "nodes" : [
                0,
                1
            ]
        }
    ],
    "nodes" : [
        {
            "mesh" : 0,
            "name" : "GiftBoxBottm.001"
        },
        {
            "mesh" : 1,
            "name" : "GiftBoxBottm"
        }
    ],
    "animations" : [
        {
            "channels" : [
                {
                    "sampler" : 0,
                    "target" : {
                        "node" : 0,
                        "path" : "translation"
                    }
                },
                {
                    "sampler" : 1,
                    "target" : {
                        "node" : 0,
                        "path" : "rotation"
                    }
                },
                {
                    "sampler" : 2,
                    "target" : {
                        "node" : 0,
                        "path" : "scale"
                    }
                }
            ],
            "name" : "GiftBoxBottm.001Action",
            "samplers" : [
                {
                    "input" : 16,
                    "interpolation" : "LINEAR",
                    "output" : 17
                },
                {
                    "input" : 16,
                    "interpolation" : "LINEAR",
                    "output" : 18
                },
                {
                    "input" : 19,
                    "interpolation" : "LINEAR",
                    "output" : 20
                }
            ]
        }
    ],
    "materials" : [
        {
            "doubleSided" : true,
            "extensions" : {
                "KHR_materials_clearcoat" : {
                    "clearcoatFactor" : 0.6431818008422852,
                    "clearcoatRoughnessFactor" : 0.029999999329447746
                }
            },
            "name" : "boxmat",
            "pbrMetallicRoughness" : {
                "baseColorTexture" : {
                    "index" : 0,
                    "texCoord" : 0
                },
                "metallicFactor" : 0
            }
        },
        {
            "doubleSided" : true,
            "name" : "ribbon",
            "pbrMetallicRoughness" : {
                "baseColorFactor" : [
                    0.8468740582466125,
                    0.39298927783966064,
                    0.027520552277565002,
                    1
                ],
                "metallicFactor" : 0.550000011920929,
                "roughnessFactor" : 0.19545453786849976
            }
        },
        {
            "doubleSided" : true,
            "extensions" : {
                "KHR_materials_clearcoat" : {
                    "clearcoatFactor" : 0.6045454740524292,
                    "clearcoatRoughnessFactor" : 0.029999999329447746
                }
            },
            "name" : "boxmatLogo",
            "pbrMetallicRoughness" : {
                "baseColorTexture" : {
                    "index" : 1,
                    "texCoord" : 0
                },
                "metallicFactor" : 0
            }
        }
    ],
    "meshes" : [
        {
            "name" : "Cube.003",
            "primitives" : [
                {
                    "attributes" : {
                        "POSITION" : 0,
                        "NORMAL" : 1,
                        "TEXCOORD_0" : 2
                    },
                    "indices" : 3,
                    "material" : 0
                },
                {
                    "attributes" : {
                        "POSITION" : 4,
                        "NORMAL" : 5,
                        "TEXCOORD_0" : 6
                    },
                    "indices" : 7,
                    "material" : 1
                }
            ]
        },
        {
            "name" : "Cube.001",
            "primitives" : [
                {
                    "attributes" : {
                        "POSITION" : 8,
                        "NORMAL" : 9,
                        "TEXCOORD_0" : 10
                    },
                    "indices" : 11,
                    "material" : 2
                },
                {
                    "attributes" : {
                        "POSITION" : 12,
                        "NORMAL" : 13,
                        "TEXCOORD_0" : 14
                    },
                    "indices" : 15,
                    "material" : 1
                }
            ]
        }
    ],
    "textures" : [
        {
            "sampler" : 0,
            "source" : 0
        },
        {
            "sampler" : 0,
            "source" : 0
        }
    ],
    "images" : [
        {
            "mimeType" : "image/png",
            "name" : "GiftBoxBottm",
            "uri" : "GiftBoxBottm.png"
        }
    ],
    "accessors" : [
        {
            "bufferView" : 0,
            "componentType" : 5126,
            "count" : 76,
            "max" : [
                0.7140978574752808,
                1.3952988386154175,
                0.678226888179779
            ],
            "min" : [
                -0.6687778830528259,
                1.211740255355835,
                -0.7046488523483276
            ],
            "type" : "VEC3"
        },
        {
            "bufferView" : 1,
            "componentType" : 5126,
            "count" : 76,
            "type" : "VEC3"
        },
        {
            "bufferView" : 2,
            "componentType" : 5126,
            "count" : 76,
            "type" : "VEC2"
        },
        {
            "bufferView" : 3,
            "componentType" : 5123,
            "count" : 84,
            "type" : "SCALAR"
        },
        {
            "bufferView" : 4,
            "componentType" : 5126,
            "count" : 2622,
            "max" : [
                0.7218238711357117,
                1.5043097734451294,
                0.6901242136955261
            ],
            "min" : [
                -0.6804454326629639,
                1.210431694984436,
                -0.7121483683586121
            ],
            "type" : "VEC3"
        },
        {
            "bufferView" : 5,
            "componentType" : 5126,
            "count" : 2622,
            "type" : "VEC3"
        },
        {
            "bufferView" : 6,
            "componentType" : 5126,
            "count" : 2622,
            "type" : "VEC2"
        },
        {
            "bufferView" : 7,
            "componentType" : 5123,
            "count" : 3312,
            "type" : "SCALAR"
        },
        {
            "bufferView" : 8,
            "componentType" : 5126,
            "count" : 262,
            "max" : [
                0.64356929063797,
                1.2539509534835815,
                0.6270878911018372
            ],
            "min" : [
                -0.6106064319610596,
                0.0070884316228330135,
                -0.6270877718925476
            ],
            "type" : "VEC3"
        },
        {
            "bufferView" : 9,
            "componentType" : 5126,
            "count" : 262,
            "type" : "VEC3"
        },
        {
            "bufferView" : 10,
            "componentType" : 5126,
            "count" : 262,
            "type" : "VEC2"
        },
        {
            "bufferView" : 11,
            "componentType" : 5123,
            "count" : 336,
            "type" : "SCALAR"
        },
        {
            "bufferView" : 12,
            "componentType" : 5126,
            "count" : 1579,
            "max" : [
                0.6975114345550537,
                1.2121014595031738,
                0.6764822006225586
            ],
            "min" : [
                -0.6582664251327515,
                -0.003377079963684082,
                -0.6792956590652466
            ],
            "type" : "VEC3"
        },
        {
            "bufferView" : 13,
            "componentType" : 5126,
            "count" : 1579,
            "type" : "VEC3"
        },
        {
            "bufferView" : 14,
            "componentType" : 5126,
            "count" : 1579,
            "type" : "VEC2"
        },
        {
            "bufferView" : 15,
            "componentType" : 5123,
            "count" : 1668,
            "type" : "SCALAR"
        },
        {
            "bufferView" : 16,
            "componentType" : 5126,
            "count" : 25,
            "max" : [
                1
            ],
            "min" : [
                0
            ],
            "type" : "SCALAR"
        },
        {
            "bufferView" : 17,
            "componentType" : 5126,
            "count" : 25,
            "type" : "VEC3"
        },
        {
            "bufferView" : 18,
            "componentType" : 5126,
            "count" : 25,
            "type" : "VEC4"
        },
        {
            "bufferView" : 19,
            "componentType" : 5126,
            "count" : 7,
            "max" : [
                0.25
            ],
            "min" : [
                0
            ],
            "type" : "SCALAR"
        },
        {
            "bufferView" : 20,
            "componentType" : 5126,
            "count" : 7,
            "type" : "VEC3"
        }
    ],
    "bufferViews" : [
        {
            "buffer" : 0,
            "byteLength" : 912,
            "byteOffset" : 0
        },
        {
            "buffer" : 0,
            "byteLength" : 912,
            "byteOffset" : 912
        },
        {
            "buffer" : 0,
            "byteLength" : 608,
            "byteOffset" : 1824
        },
        {
            "buffer" : 0,
            "byteLength" : 168,
            "byteOffset" : 2432
        },
        {
            "buffer" : 0,
            "byteLength" : 31464,
            "byteOffset" : 2600
        },
        {
            "buffer" : 0,
            "byteLength" : 31464,
            "byteOffset" : 34064
        },
        {
            "buffer" : 0,
            "byteLength" : 20976,
            "byteOffset" : 65528
        },
        {
            "buffer" : 0,
            "byteLength" : 6624,
            "byteOffset" : 86504
        },
        {
            "buffer" : 0,
            "byteLength" : 3144,
            "byteOffset" : 93128
        },
        {
            "buffer" : 0,
            "byteLength" : 3144,
            "byteOffset" : 96272
        },
        {
            "buffer" : 0,
            "byteLength" : 2096,
            "byteOffset" : 99416
        },
        {
            "buffer" : 0,
            "byteLength" : 672,
            "byteOffset" : 101512
        },
        {
            "buffer" : 0,
            "byteLength" : 18948,
            "byteOffset" : 102184
        },
        {
            "buffer" : 0,
            "byteLength" : 18948,
            "byteOffset" : 121132
        },
        {
            "buffer" : 0,
            "byteLength" : 12632,
            "byteOffset" : 140080
        },
        {
            "buffer" : 0,
            "byteLength" : 3336,
            "byteOffset" : 152712
        },
        {
            "buffer" : 0,
            "byteLength" : 100,
            "byteOffset" : 156048
        },
        {
            "buffer" : 0,
            "byteLength" : 300,
            "byteOffset" : 156148
        },
        {
            "buffer" : 0,
            "byteLength" : 400,
            "byteOffset" : 156448
        },
        {
            "buffer" : 0,
            "byteLength" : 28,
            "byteOffset" : 156848
        },
        {
            "buffer" : 0,
            "byteLength" : 84,
            "byteOffset" : 156876
        }
    ],
    "samplers" : [
        {
            "magFilter" : 9729,
            "minFilter" : 9986
        }
    ],
    "buffers" : [
        {
            "byteLength" : 156960,
            "uri" : "giftbox.bin"
        }
    ]
}
